<?xml version="1.0" encoding="UTF-8"?>
<svg width="1904px" height="253px" viewBox="0 0 1904 253" version="1.1" xmlns="http://www.w3.org/2000/svg" xmlns:xlink="http://www.w3.org/1999/xlink">
    <!-- Generator: Sketch 45.1 (43504) - http://www.bohemiancoding.com/sketch -->
    <title>Page 1</title>
    <desc>Created with Sketch.</desc>
    <defs>
        <polygon id="path-1" points="1903.9116 0 0 0 0 252.8778 1903.9116 252.8778 1903.9116 -2.84217094e-14"></polygon>
    </defs>
    <g id="Page-1" stroke="none" stroke-width="1" fill="none" fill-rule="evenodd">
        <g>
            <mask id="mask-2" fill="white">
                <use xlink:href="#path-1"></use>
            </mask>
            <g id="Clip-2"></g>
            <path d="M249.5596,118.0098 L249.7146,118.0098 L249.7146,252.8778 L76.3896,252.8778 C66.3796,252.8778 -0.0004,248.6628 -0.0004,179.1218 L-0.0004,69.1198 C-0.0004,27.8168 31.6096,-0.0002 86.9256,-0.0002 L224.4276,-0.0002 L224.4276,61.1118 L91.6676,61.1118 C91.6676,61.1118 81.6576,61.1118 81.6576,69.1198 L81.6576,168.1638 C81.6576,175.7498 87.4526,188.8158 106.9456,188.8158 C123.8036,188.8158 178.5936,189.4788 178.5936,189.4788 L178.5936,163.3118 L143.0596,163.3118 L119.3926,117.8118 L249.5596,117.8118 L249.5596,118.0098 Z M1903.9116,-0.0002 L1903.9116,248.6628 L1822.2536,248.6628 L1822.2536,150.8838 L1710.0396,150.8838 L1710.0396,248.6628 L1628.3816,248.6628 L1628.3816,-0.0002 L1710.0396,-0.0002 L1710.0396,93.5648 L1822.2536,93.5648 L1822.2536,-0.0002 L1903.9116,-0.0002 Z M1388.6836,177.4358 C1388.6836,185.4438 1378.6736,185.4438 1378.6736,185.4438 L1291.7476,185.4438 C1261.1916,185.4438 1261.1916,157.2058 1261.1916,157.2058 L1261.1916,67.4338 C1261.1916,59.4268 1271.2016,59.0048 1271.2016,59.0048 L1358.1276,59.0048 C1388.6836,59.0048 1388.6836,87.6638 1388.6836,87.6638 L1388.6836,177.4358 Z M1467.7076,73.3348 C1467.7076,3.7928 1396.0596,-0.0002 1386.0496,-0.0002 L1269.0946,-0.0002 C1182.1686,-0.0002 1182.1686,69.5418 1182.1686,69.5418 L1182.1686,175.7498 C1182.1686,245.2918 1253.8166,248.6628 1263.8266,248.6628 L1381.3086,248.6628 C1468.2346,248.6628 1467.7076,179.1218 1467.7076,179.1218 L1467.7076,73.3348 Z M1069.9626,105.7868 C1069.9626,130.2318 1054.6846,138.6608 1029.3976,138.6608 L973.5536,138.6608 L973.5536,53.1038 L1029.3976,53.1038 C1054.6846,53.1038 1069.9626,61.5338 1069.9626,81.7638 L1069.9626,105.7868 Z M1047.3096,-0.0002 L897.1636,-0.0002 L897.1636,248.6628 L973.5536,248.6628 L973.5536,191.7658 L1030.9776,191.7658 C1060.4796,191.7658 1147.9336,182.9148 1147.9336,110.4238 L1147.9336,81.7638 C1147.9336,20.6518 1098.4116,-0.0002 1047.3096,-0.0002 L1047.3096,-0.0002 Z M773.8926,-0.0002 L855.0236,-0.0002 L855.0236,179.1218 C855.0236,179.1218 855.0236,248.6628 768.0976,248.6628 L661.1516,248.6628 C651.1426,248.6628 579.4946,245.2918 579.4946,175.7498 L579.4946,-0.0002 L660.6246,-0.0002 L660.6246,157.2058 C660.6246,157.2058 660.6246,185.4438 691.1806,185.4438 L763.8826,185.4438 C763.8826,185.4438 773.8926,185.4438 773.8926,177.4358 L773.8926,-0.0002 Z M462.0176,97.3578 C462.0176,118.4308 446.7396,130.2318 421.4526,130.2318 L365.6086,130.2318 L365.6086,53.1038 L421.4526,53.1038 C446.7396,53.1038 462.0176,61.5338 462.0176,81.7638 L462.0176,97.3578 Z M439.3646,-0.0002 L289.2186,-0.0002 L289.2186,248.6628 L365.6086,248.6628 L365.6086,179.1218 L397.2186,179.1218 L449.9006,248.6628 L536.2996,248.6628 L474.6616,171.9568 C506.7976,162.6848 539.9876,142.4548 539.9876,97.7798 L539.9876,81.7638 C539.9876,20.6518 490.4666,-0.0002 439.3646,-0.0002 L439.3646,-0.0002 Z" id="Fill-1" fill="#F5A623" mask="url(#mask-2)"></path>
        </g>
    </g>
</svg>